<?xml version="1.0" encoding="utf-8"?>
<!-- Generator: Adobe Illustrator 19.0.1, SVG Export Plug-In . SVG Version: 6.00 Build 0)  -->
<svg version="1.1" id="Ground_Floor" xmlns="http://www.w3.org/2000/svg" xmlns:xlink="http://www.w3.org/1999/xlink" x="0px"
	 y="0px" viewBox="214 36.9 1024 768" style="enable-background:new 214 36.9 1024 768;" xml:space="preserve">
<style type="text/css">
	.st0{fill:#FFFFFF;stroke:#000000;stroke-miterlimit:10;}
	.st1{fill:#A6CAFF;stroke:#000000;stroke-miterlimit:10;}
	.st2{font-family:'Arial-ItalicMT';}
	.st3{font-size:18px;}
	.st4{fill:#EFEFEF;stroke:#000000;stroke-miterlimit:10;}
	.st5{font-family:'ArialMT';}
	.st6{font-size:31.1369px;}
</style>
<rect id="BuildingFrame" x="237.3" y="59.3" class="st0" width="982.4" height="727.7"/>
<rect id="Stairwell_1_" x="471.7" y="373.5" class="st1" width="161" height="155"/>
<rect id="Stairwell" x="855.4" y="373.5" class="st1" width="161" height="155"/>
<text transform="matrix(1 0 0 1 528.7156 441.1725)"><tspan x="0" y="0" class="st2 st3">South</tspan><tspan x="-13" y="21.6" class="st2 st3">Stairwell </tspan></text>
<text transform="matrix(1 0 0 1 913.8651 441.1725)"><tspan x="0" y="0" class="st2 st3">North</tspan><tspan x="-14.5" y="21.6" class="st2 st3">Stairwell </tspan></text>
<rect id="Lifts" x="632.8" y="373.5" class="st1" width="222.6" height="155"/>
<text transform="matrix(1 0 0 1 727.5479 453.1801)" class="st2 st3">Lifts</text>
<rect id="Office" x="480.5" y="59.4" class="st4" width="64.5" height="165.1"/>
<rect id="Office_1_" x="409.6" y="59.4" class="st4" width="70.9" height="165.1"/>
<rect id="P234" x="900.8" y="59.4" class="st0" width="177.9" height="219"/>
<text id="P234-label" transform="matrix(1.0275 0 0 1 950.1854 185.9159)" class="st5 st6">P234</text>
<rect id="P235" x="1078.7" y="59.4" class="st0" width="140.9" height="314.1"/>
<text id="P235-label" transform="matrix(1.0275 0 0 1 1113.1841 216.429)" class="st5 st6">P235</text>
<rect id="P233" x="722.9" y="59.4" class="st0" width="177.9" height="219"/>
<text id="P233-label" transform="matrix(1.0275 0 0 1 770.5103 185.9159)" class="st5 st6">P233</text>
<rect id="P230" x="544.9" y="59.4" class="st0" width="177.9" height="165.1"/>
<text id="P230-label" transform="matrix(1.0275 0 0 1 591.1973 160.6819)" class="st5 st6">P230</text>
<rect id="P227" x="237.3" y="59.4" class="st0" width="172.2" height="236"/>
<text id="P227-label" transform="matrix(1.0275 0 0 1 283.5836 185.9159)" class="st5 st6">P227</text>
<rect id="Non-comp_1_" x="237.3" y="295.4" class="st4" width="172.2" height="251.3"/>
<rect id="Non-comp" x="237.3" y="546.7" class="st4" width="172.2" height="240.3"/>
<rect id="P203" x="460" y="594.6" class="st0" width="280.9" height="192.4"/>
<text id="P203-label" transform="matrix(1.0275 0 0 1 557.1321 702.318)" class="st5 st6">P203</text>
<rect id="P202" x="811.8" y="594.6" class="st0" width="266.9" height="192.4"/>
<text id="P202-label" transform="matrix(1.0275 0 0 1 905.6152 702.3176)" class="st5 st6">P202</text>
<rect id="P201" x="1078.7" y="373.5" class="st0" width="142" height="413.5"/>
<text id="P201-label" transform="matrix(1.0275 0 0 1 1115.1846 611.5085)" class="st5 st6">P201</text>
</svg>
